<svg width="500" height="500" viewBox="0 0 500 500" fill="none" xmlns="http://www.w3.org/2000/svg">
<rect width="500" height="500" fill="#18181A"/>
<path d="M133.023 181.191C133.023 173.778 135.525 168.079 140.529 164.094C145.533 160.017 152.715 157.978 162.074 157.978C171.526 157.978 178.569 158.951 183.202 160.897V180.913C177.55 178.504 171.109 177.299 163.881 177.299C160.175 177.299 157.673 177.901 156.375 179.106C155.078 180.218 154.429 181.84 154.429 183.971V186.056C154.429 188.651 154.846 190.597 155.68 191.894C156.607 193.099 158.553 194.489 161.518 196.064L177.364 204.96C184.963 209.13 188.762 215.385 188.762 223.725V232.343C188.762 239.849 185.982 245.641 180.422 249.718C174.862 253.703 167.032 255.695 156.931 255.695C146.923 255.695 139.371 254.629 134.274 252.498V232.343C140.576 235.03 147.711 236.374 155.68 236.374C163.65 236.374 167.634 234.104 167.634 229.563V227.478C167.634 225.347 167.171 223.771 166.244 222.752C165.41 221.64 163.789 220.435 161.379 219.138L146.506 211.076C137.518 206.072 133.023 199.029 133.023 189.948V181.191ZM234.556 255L230.525 232.76H211.482L207.729 255H187.852L206.756 158.673H235.807L254.433 255H234.556ZM214.401 215.107H227.467L220.795 177.855L214.401 215.107ZM334.95 158.673V255H314.795V221.501C314.795 211.864 315.675 202.365 317.436 193.006L304.092 230.536H287.968L274.624 193.006C276.385 201.624 277.265 211.122 277.265 221.501V255H257.249V158.673H278.655L296.03 207.879L313.405 158.673H334.95ZM343.348 158.673H364.476V255H343.348V158.673Z" fill="#D9D9D9"/>
<path d="M171.766 284.913C171.766 283.245 171.349 281.994 170.515 281.16C169.773 280.233 168.291 279.77 166.067 279.77H156.059V341.069H166.067C169.866 341.069 171.766 338.938 171.766 334.675V284.913ZM135.209 262.673H168.986C176.492 262.673 182.283 264.48 186.361 268.094C190.531 271.708 192.616 277.036 192.616 284.079V336.343C192.616 351.448 185.156 359 170.237 359H135.209V262.673ZM199.589 262.673H248.378V280.743H220.439V301.176H244.625V319.246H220.439V340.93H248.378V359H199.589V262.673ZM292.704 262.673H314.388L296.04 359H266.989L248.363 262.673H269.63C275.005 293.346 278.109 311.879 278.943 318.273C279.777 324.667 280.704 332.219 281.723 340.93C283.484 324.343 285.013 311.925 286.31 303.678L292.704 262.673ZM313.742 285.191C313.742 277.778 316.244 272.079 321.248 268.094C326.252 264.017 333.434 261.978 342.793 261.978C352.245 261.978 359.288 262.951 363.921 264.897V284.913C358.269 282.504 351.828 281.299 344.6 281.299C340.894 281.299 338.392 281.901 337.094 283.106C335.797 284.218 335.148 285.84 335.148 287.971V290.056C335.148 292.651 335.565 294.597 336.399 295.894C337.326 297.099 339.272 298.489 342.237 300.064L358.083 308.96C365.682 313.13 369.481 319.385 369.481 327.725V336.343C369.481 343.849 366.701 349.641 361.141 353.718C355.581 357.703 347.751 359.695 337.65 359.695C327.642 359.695 320.09 358.629 314.993 356.498V336.343C321.295 339.03 328.43 340.374 336.399 340.374C344.369 340.374 348.353 338.104 348.353 333.563V331.478C348.353 329.347 347.89 327.771 346.963 326.752C346.129 325.64 344.508 324.435 342.098 323.138L327.225 315.076C318.237 310.072 313.742 303.029 313.742 293.948V285.191Z" fill="#D9D9D9"/>
<g filter="url(#filter0_d_68_8)">
<path fill-rule="evenodd" clip-rule="evenodd" d="M149 145C155.627 145 161 139.404 161 132.5C161 125.596 155.627 120 149 120C142.373 120 137 125.596 137 132.5C137 139.404 142.373 145 149 145Z" fill="#FF5E57"/>
<path d="M160.75 132.5C160.75 139.275 155.48 144.75 149 144.75C142.52 144.75 137.25 139.275 137.25 132.5C137.25 125.725 142.52 120.25 149 120.25C155.48 120.25 160.75 125.725 160.75 132.5Z" stroke="black" stroke-opacity="0.12" stroke-width="0.5"/>
<path fill-rule="evenodd" clip-rule="evenodd" d="M190 145C197.18 145 203 139.404 203 132.5C203 125.596 197.18 120 190 120C182.82 120 177 125.596 177 132.5C177 139.404 182.82 145 190 145Z" fill="#FFBB2E"/>
<path d="M202.75 132.5C202.75 139.256 197.051 144.75 190 144.75C182.949 144.75 177.25 139.256 177.25 132.5C177.25 125.744 182.949 120.25 190 120.25C197.051 120.25 202.75 125.744 202.75 132.5Z" stroke="black" stroke-opacity="0.12" stroke-width="0.5"/>
<path fill-rule="evenodd" clip-rule="evenodd" d="M231 145C237.627 145 243 139.404 243 132.5C243 125.596 237.627 120 231 120C224.373 120 219 125.596 219 132.5C219 139.404 224.373 145 231 145Z" fill="#38C149"/>
<path d="M242.75 132.5C242.75 139.275 237.48 144.75 231 144.75C224.52 144.75 219.25 139.275 219.25 132.5C219.25 125.725 224.52 120.25 231 120.25C237.48 120.25 242.75 125.725 242.75 132.5Z" stroke="black" stroke-opacity="0.12" stroke-width="0.5"/>
</g>
<defs>
<filter id="filter0_d_68_8" x="133" y="120" width="114" height="33" filterUnits="userSpaceOnUse" color-interpolation-filters="sRGB">
<feFlood flood-opacity="0" result="BackgroundImageFix"/>
<feColorMatrix in="SourceAlpha" type="matrix" values="0 0 0 0 0 0 0 0 0 0 0 0 0 0 0 0 0 0 127 0" result="hardAlpha"/>
<feOffset dy="4"/>
<feGaussianBlur stdDeviation="2"/>
<feComposite in2="hardAlpha" operator="out"/>
<feColorMatrix type="matrix" values="0 0 0 0 0 0 0 0 0 0 0 0 0 0 0 0 0 0 0.25 0"/>
<feBlend mode="normal" in2="BackgroundImageFix" result="effect1_dropShadow_68_8"/>
<feBlend mode="normal" in="SourceGraphic" in2="effect1_dropShadow_68_8" result="shape"/>
</filter>
</defs>
</svg>
